# xmcd CD Database Entry
#
# Track frame offsets:
# 150
# 31130
# 48185
# 89277
# 122591
# 166734
# 225470
# 258359
#
# Disc length: 3905 seconds
#
# Revision: 1
# Processed by: cddbd v1.4b41PL1 Copyright (c) Steve Scherf et al.
# Submitted via: tcd 2.0b
#
DISCID=520f3f08
DTITLE=Christine Duncan - The Vogue Show
DYEAR=1900
DGENRE=
TTITLE0=Your Little Girl
TTITLE1=June
TTITLE2=Law of the Blues
TTITLE3=Bye Bye Blackbird
TTITLE4=Georgia on my Mind
TTITLE5=Song For My Father
TTITLE6=I'll Be Seeing You
TTITLE7=You Better Blues
EXTD=
EXTT0=
EXTT1=
EXTT2=
EXTT3=
EXTT4=
EXTT5=
EXTT6=
EXTT7=
PLAYORDER=
